<svg width="40" height="40" viewBox="0 0 40 40" fill="none" xmlns="http://www.w3.org/2000/svg">
<path d="M17 11.327V28.673M24.5 17L21.5 20L24.5 23M15.8 11C14.1198 11 13.2798 11 12.638 11.327C12.0735 11.6146 11.6146 12.0735 11.327 12.638C11 13.2798 11 14.1198 11 15.8V24.2C11 25.8802 11 26.7202 11.327 27.362C11.6146 27.9265 12.0735 28.3854 12.638 28.673C13.2798 29 14.1198 29 15.8 29H20H24.2C25.8802 29 26.7202 29 27.362 28.673C27.9265 28.3854 28.3854 27.9265 28.673 27.362C29 26.7202 29 25.8802 29 24.2V20V15.8C29 14.1198 29 13.2798 28.673 12.638C28.3854 12.0735 27.9265 11.6146 27.362 11.327C26.7202 11 25.8802 11 24.2 11H20H15.8Z" stroke="black" stroke-opacity="0.8" stroke-linecap="round" stroke-linejoin="round"/>
</svg>
