<svg width="40" height="40" viewBox="0 0 40 40" fill="none" xmlns="http://www.w3.org/2000/svg">
<path d="M20.7608 24.1668H26.7391M20.7608 24.1668L19.1666 27.5001M20.7608 24.1668L23.1485 19.1743C23.3409 18.772 23.4371 18.5708 23.5688 18.5072C23.6832 18.452 23.8167 18.452 23.9311 18.5072C24.0628 18.5708 24.159 18.772 24.3514 19.1743L26.7391 24.1668M26.7391 24.1668L28.3333 27.5001M11.6665 14.1667H16.6666M16.6666 14.1667H19.5832M16.6666 14.1667V12.5M19.5832 14.1667H21.6666M19.5832 14.1667C19.1698 16.6311 18.2104 18.8635 16.8045 20.7371M18.3332 21.6668C17.8228 21.4374 17.3021 21.1185 16.8045 20.7371M16.8045 20.7371C15.6774 19.8732 14.6688 18.6889 14.1665 17.5M16.8045 20.7371C15.4673 22.5192 13.7261 23.9766 11.6665 25.0001" stroke="black" stroke-opacity="0.8" stroke-linecap="round" stroke-linejoin="round"/>
</svg>
