<svg width="20" height="20" viewBox="0 0 20 20" fill="none" xmlns="http://www.w3.org/2000/svg">
<path d="M7.91678 18.3333H12.0835M8.33346 8.33324H11.6668M10.0001 8.33324L10.0001 13.3333M12.5002 12.7719C14.471 11.8357 15.8335 9.82691 15.8335 7.49989C15.8335 4.2782 13.2218 1.6665 10.0001 1.6665C6.77845 1.6665 4.16675 4.2782 4.16675 7.49989C4.16675 9.82691 5.52931 11.8357 7.50011 12.7719V13.3333C7.50011 14.1099 7.50011 14.4981 7.62698 14.8044C7.79614 15.2128 8.1206 15.5373 8.52898 15.7064C8.83527 15.8333 9.22356 15.8333 10.0001 15.8333C10.7767 15.8333 11.165 15.8333 11.4713 15.7064C11.8797 15.5373 12.2041 15.2128 12.3733 14.8044C12.5002 14.4981 12.5002 14.1099 12.5002 13.3333V12.7719Z" stroke="black" stroke-opacity="0.56" stroke-linecap="round" stroke-linejoin="round"/>
</svg>
