<svg width="40" height="40" viewBox="0 0 40 40" fill="none" xmlns="http://www.w3.org/2000/svg">
<path d="M21.8746 11.6665H17.0782C16.9286 11.6665 16.8539 11.6665 16.7878 11.6893C16.7295 11.7094 16.6763 11.7423 16.6322 11.7855C16.5823 11.8344 16.5488 11.9013 16.4819 12.035L12.9819 19.0351C12.8222 19.3546 12.7423 19.5143 12.7615 19.6441C12.7782 19.7575 12.8409 19.859 12.9349 19.9247C13.0424 19.9999 13.221 19.9999 13.5782 19.9999H18.7495L16.2495 28.3333L26.4105 17.796C26.7533 17.4405 26.9247 17.2627 26.9348 17.1106C26.9435 16.9786 26.889 16.8503 26.7879 16.7649C26.6714 16.6666 26.4245 16.6666 25.9306 16.6666H19.9996L21.8746 11.6665Z" stroke="black" stroke-opacity="0.8" stroke-linecap="round" stroke-linejoin="round"/>
</svg>
