<svg width="24" height="24" viewBox="0 0 24 24" fill="none" xmlns="http://www.w3.org/2000/svg">
<path d="M6.80004 3H6.20003C5.07992 3 4.51986 3 4.09203 3.21799C3.7157 3.40974 3.40974 3.7157 3.21799 4.09203C3 4.51986 3 5.07992 3 6.20003V17.8001C3 18.9203 3 19.4803 3.21799 19.9081C3.40974 20.2845 3.7157 20.5904 4.09203 20.7822C4.51986 21.0002 5.07992 21.0002 6.20003 21.0002H6.80004C7.92015 21.0002 8.48021 21.0002 8.90804 20.7822C9.28437 20.5904 9.59033 20.2845 9.78208 19.9081C10.0001 19.4803 10.0001 18.9203 10.0001 17.8001V6.20003C10.0001 5.07992 10.0001 4.51986 9.78208 4.09203C9.59033 3.7157 9.28437 3.40974 8.90804 3.21799C8.48021 3 7.92015 3 6.80004 3Z" stroke="black" stroke-opacity="0.8" stroke-linecap="round" stroke-linejoin="round"/>
<path d="M17.8001 3H17.2001C16.08 3 15.52 3 15.0921 3.21799C14.7158 3.40974 14.4098 3.7157 14.2181 4.09203C14.0001 4.51986 14.0001 5.07992 14.0001 6.20003V17.8001C14.0001 18.9203 14.0001 19.4803 14.2181 19.9081C14.4098 20.2845 14.7158 20.5904 15.0921 20.7822C15.52 21.0002 16.08 21.0002 17.2001 21.0002H17.8001C18.9203 21.0002 19.4803 21.0002 19.9081 20.7822C20.2845 20.5904 20.5904 20.2845 20.7822 19.9081C21.0002 19.4803 21.0002 18.9203 21.0002 17.8001V6.20003C21.0002 5.07992 21.0002 4.51986 20.7822 4.09203C20.5904 3.7157 20.2845 3.40974 19.9081 3.21799C19.4803 3 18.9203 3 17.8001 3Z" stroke="black" stroke-opacity="0.8" stroke-linecap="round" stroke-linejoin="round"/>
</svg>
