<svg width="24" height="24" viewBox="12 10 16 20" fill="none" xmlns="http://www.w3.org/2000/svg">
<path d="M14.1665 14.1581C14.1665 13.3488 14.1665 12.9441 14.3352 12.7211C14.4823 12.5268 14.7069 12.4065 14.9502 12.392C15.2294 12.3753 15.5661 12.5998 16.2395 13.0487L25.0025 18.8907C25.5589 19.2617 25.8371 19.4471 25.9341 19.6809C26.0188 19.8853 26.0188 20.115 25.9341 20.3194C25.8371 20.5531 25.5589 20.7386 25.0025 21.1096L16.2395 26.9516C15.5661 27.4005 15.2294 27.625 14.9502 27.6083C14.7069 27.5938 14.4823 27.4735 14.3352 27.2792C14.1665 27.0561 14.1665 26.6515 14.1665 25.8422V14.1581Z" stroke="black" stroke-opacity="0.8" stroke-linecap="round" stroke-linejoin="round"/>
</svg>
