<svg width="20" height="20" viewBox="0 0 20 20" fill="none" xmlns="http://www.w3.org/2000/svg">
<path d="M10.9349 12.3708L15.0005 18.3336M9.06593 12.3708L5.00037 18.3336M11.6671 11.0002C11.6671 11.9207 10.9209 12.6669 10.0004 12.6669C9.07994 12.6669 8.33374 11.9207 8.33374 11.0002C8.33374 10.0797 9.07994 9.33355 10.0004 9.33355C10.9209 9.33355 11.6671 10.0797 11.6671 11.0002ZM14.2909 3.77705L4.47054 6.4084C4.24514 6.4688 4.13243 6.499 4.05809 6.56594C3.9927 6.62481 3.94763 6.70288 3.92934 6.78895C3.90854 6.8868 3.93874 6.9995 3.99913 7.22491L4.73246 9.96172C4.79286 10.1871 4.82306 10.2998 4.88999 10.3742C4.94887 10.4396 5.02694 10.4846 5.11301 10.5029C5.21086 10.5237 5.32356 10.4935 5.54897 10.4331L15.3693 7.80178L14.2909 3.77705ZM18.1608 7.91654C17.2592 8.15813 16.8084 8.27892 16.417 8.19573C16.0727 8.12255 15.7604 7.94226 15.5249 7.68069C15.2572 7.38334 15.1364 6.93252 14.8948 6.0309L14.7654 5.54793C14.5238 4.64631 14.403 4.1955 14.4862 3.8041C14.5594 3.45983 14.7397 3.14755 15.0012 2.91204C15.2986 2.6443 15.7494 2.5235 16.651 2.28191C16.8764 2.22152 16.9891 2.19132 17.087 2.21212C17.1731 2.23041 17.2511 2.27548 17.31 2.34087C17.3769 2.41521 17.4071 2.52792 17.4675 2.75332L18.6322 7.10003C18.6926 7.32544 18.7228 7.43814 18.702 7.53599C18.6837 7.62206 18.6387 7.70013 18.5733 7.759C18.4989 7.82594 18.3862 7.85614 18.1608 7.91654ZM2.91844 10.2752L4.04537 9.97328C4.27077 9.91289 4.38348 9.88269 4.45782 9.81575C4.52321 9.75687 4.56828 9.6788 4.58657 9.59273C4.60737 9.49489 4.57717 9.38218 4.51678 9.15678L4.21482 8.02985C4.15442 7.80445 4.12422 7.69174 4.05729 7.61741C3.99841 7.55201 3.92034 7.50694 3.83427 7.48865C3.73642 7.46785 3.62372 7.49805 3.39831 7.55844L2.27139 7.8604C2.04598 7.9208 1.93328 7.951 1.85894 8.01793C1.79355 8.07681 1.74848 8.15488 1.73018 8.24095C1.70938 8.3388 1.73958 8.4515 1.79998 8.67691L2.10194 9.80383C2.16234 10.0292 2.19254 10.1419 2.25947 10.2163C2.31835 10.2817 2.39642 10.3267 2.48249 10.345C2.58033 10.3658 2.69304 10.3356 2.91844 10.2752Z" stroke="black" stroke-opacity="0.56" stroke-linecap="round" stroke-linejoin="round"/>
</svg>
