<svg width="110" height="40" viewBox="0 0 110 40" fill="none" xmlns="http://www.w3.org/2000/svg">
<g clip-path="url(#clip0_626_11046)">
<path d="M30.0554 15.8046C30.5502 15.8046 30.9517 16.0727 30.9983 16.609C31.0449 17.3239 31.1094 18.0389 31.1561 18.7539C31.2242 19.5368 31.2923 20.4556 31.3139 21.1027C31.3353 21.5495 30.9768 21.8856 30.4175 21.8856C29.9909 21.8856 29.6108 21.7497 29.3634 21.2135C28.5567 19.4904 27.6605 18.1283 25.9574 18.1283C24.2545 18.1283 23.0427 19.4689 23.0427 21.7926C23.0427 24.4309 24.5879 26.1969 26.696 26.1969C28.2197 26.1969 29.048 25.6143 29.8331 24.4309C29.9909 24.2522 30.2132 24.1629 30.4391 24.1629C30.8871 24.1629 31.2923 24.4739 31.2923 24.8778C31.2923 24.9672 31.2708 25.103 31.2242 25.1924C30.7079 26.9585 28.9834 28.7245 25.979 28.7245C21.942 28.7245 19.5435 26.2864 19.5435 22.4433C19.5435 18.2427 22.3472 15.9833 25.6635 15.9833C26.7821 15.9833 27.5243 16.2515 27.9939 16.4981C28.3524 16.6769 28.5747 16.8342 28.7109 16.8342C28.9548 16.8342 29.1125 16.6983 29.1806 16.4302C29.2702 15.9833 29.6287 15.8046 30.0554 15.8046ZM52.8342 15.9833L52.9443 15.984C56.6288 16.0309 59.0885 18.3942 59.0885 22.4218C59.0885 26.4901 55.7507 28.7245 52.4093 28.7245C48.6448 28.7245 46.0885 26.4223 46.0885 22.3539C46.0885 18.2856 49.5196 15.9833 52.8359 15.9833L52.8342 15.9833ZM35.6877 11.0679C36.3152 11.0679 36.6522 11.3789 36.6522 11.9831V17.6565C36.6522 17.8138 36.6987 17.9032 36.8099 17.9032C36.8863 17.9032 37.0277 17.7398 37.1787 17.5676L37.2183 17.5226C37.2315 17.5076 37.2448 17.4926 37.2581 17.4778C38.0181 16.6269 39.0041 15.9799 40.8433 15.9799C43.3314 15.9799 44.6329 17.7459 44.6544 20.159V26.0613C44.6544 26.4438 44.7871 26.5545 45.0345 26.5545H45.4825L45.479 26.5618C46.0382 26.5618 46.3753 26.9406 46.3753 27.477C46.3753 28.0596 46.0419 28.5065 45.4575 28.5065H40.3701C39.8107 28.5065 39.4737 28.1061 39.4737 27.502C39.4737 26.9657 39.7893 26.5618 40.3485 26.5618H40.7536C41.0871 26.5618 41.2233 26.4473 41.2233 26.0684V22.7615C41.2233 20.9955 41.1337 19.8801 40.6389 19.2081C40.2553 18.7147 39.7642 18.4466 38.979 18.4466C38.1939 18.4466 37.7026 18.8041 37.2975 19.3189C36.8064 19.9195 36.6486 20.8597 36.6486 22.0895V26.0684C36.6486 26.4509 36.8064 26.5618 37.0537 26.5618H37.4337C38.0146 26.5618 38.3301 26.9406 38.3301 27.477C38.3301 28.0596 37.993 28.5065 37.3872 28.5065H32.0954C31.5146 28.5065 31.1991 28.0596 31.1991 27.477C31.1991 26.9406 31.5576 26.5618 32.0739 26.5618H32.7012C33.0383 26.5618 33.2391 26.4473 33.2391 26.0684V14.1781C33.2391 13.7312 33.0849 13.5739 32.6798 13.5739H31.9412C31.4249 13.5739 31.1345 13.195 31.1345 12.7481C31.1345 12.2333 31.4501 11.9437 32.0774 11.8079C32.9522 11.6041 33.7589 11.4254 34.6122 11.2252C35.0819 11.1143 35.3973 11.0679 35.6877 11.0679ZM52.2479 18.3071C50.6561 18.3071 49.559 19.5333 49.559 21.6139C49.559 24.2737 51.0182 26.2864 52.9901 26.2864L52.9884 26.2863L53.0321 26.286C54.5173 26.2638 55.6101 25.1516 55.632 23.1311L55.6323 23.0689C55.6323 20.3877 54.1767 18.3071 52.2479 18.3071ZM66.4185 15.9833L66.5287 15.984C70.2133 16.0309 72.673 18.3942 72.673 22.4218C72.673 26.4901 69.3351 28.7245 65.9937 28.7245C62.2292 28.7245 59.6729 26.4223 59.6729 22.3539C59.6729 18.2856 63.104 15.9833 66.4203 15.9833L66.4185 15.9833ZM76.8605 11.0679C77.3982 11.0679 77.7137 11.3789 77.7137 11.9831V26.0613C77.7137 26.4438 77.8249 26.5545 78.1619 26.5545H78.7893L78.7857 26.5618C79.3235 26.5618 79.6605 26.9406 79.6605 27.477C79.6605 28.0596 79.3487 28.5065 78.7427 28.5065H73.2071C72.6049 28.5065 72.2893 28.0596 72.2893 27.477C72.2893 26.9406 72.6263 26.5618 73.1641 26.5618H73.7915C74.125 26.5618 74.2612 26.4473 74.2612 26.0684V14.1781C74.2612 13.7312 74.1035 13.5739 73.6768 13.5739H72.9598C72.4435 13.5739 72.1531 13.195 72.1531 12.7481C72.1531 12.2333 72.4435 11.9437 73.0709 11.8079C73.9708 11.6041 74.8672 11.4254 75.7849 11.2252C76.2761 11.1143 76.5916 11.0679 76.8605 11.0679ZM65.8359 18.3071C64.2441 18.3071 63.147 19.5333 63.147 21.6139C63.147 24.2737 64.6062 26.2864 66.5781 26.2864L66.5764 26.2863L66.6201 26.286C68.1053 26.2638 69.1981 25.1516 69.22 23.1311L69.2203 23.0689C69.2203 20.3877 67.7647 18.3071 65.8359 18.3071ZM93.7576 26.5797H93.4887C93.1015 26.5797 92.9509 26.2007 92.9509 24.903V20.6095C92.9509 17.8603 91.4056 16.0049 87.7272 16.0049C84.7909 16.0049 82.102 17.5029 82.102 19.5799C82.102 20.4307 82.7437 21.0456 83.6436 21.0456C84.5436 21.0456 85.3753 20.6989 85.7159 19.8016C85.9992 19.0508 86.3182 18.0605 87.4834 18.0605C88.8279 18.0605 89.5915 18.9328 89.5915 20.0732V20.1626C89.5915 20.9455 89.233 21.2351 88.5159 21.371C87.9782 21.4818 87.573 21.5497 86.8344 21.6391C83.8301 21.9966 81.9693 23.0262 81.9693 25.4821C81.9693 27.4055 83.2026 28.746 85.7338 28.746C87.2361 28.746 88.5375 28.1634 89.3872 27.1803C89.5234 27.023 89.613 26.9551 89.7027 26.9551C89.7923 26.9551 89.8389 27.0015 89.9034 27.2017C90.0145 27.5377 90.1723 27.8059 90.3982 28.0275C90.8248 28.4958 91.4307 28.6745 92.302 28.6745C93.3094 28.6745 94.342 28.242 94.342 27.2446C94.342 26.8657 94.1412 26.5725 93.7576 26.5725V26.5797ZM89.631 23.6518C89.631 23.9879 89.6095 24.2989 89.5413 24.5919C89.2725 25.8432 88.4191 26.5153 87.1644 26.5153C85.9776 26.5153 85.3717 25.9112 85.3717 25.0174C85.3717 24.0129 86.0457 23.4766 87.4332 23.23C88.1503 23.0941 88.645 23.0297 88.914 23.0297H88.9821C89.4768 23.0297 89.631 23.1656 89.631 23.6125V23.6589V23.6518ZM101.129 26.5544H100.501C100.164 26.5544 100.032 26.4436 100.032 26.0611V16.8949C100.032 16.2907 99.7162 15.9797 99.2035 15.9797C98.9131 15.9797 98.6191 16.0011 98.128 16.137C97.5221 16.2943 96.6257 16.5839 95.4139 17.0093C94.808 17.2095 94.471 17.5026 94.471 18.0389C94.471 18.5072 94.8296 18.8897 95.3458 18.8897H95.9948C96.3998 18.8897 96.6007 19.1149 96.6007 19.5618V26.0683C96.6007 26.4472 96.4429 26.5615 96.1059 26.5615H95.4785C94.9622 26.5615 94.6037 26.9405 94.6037 27.4767C94.6037 28.0595 94.9192 28.5064 95.4785 28.5064H101.104C101.688 28.5064 102 28.0595 102 27.4767C102 26.9405 101.641 26.5615 101.125 26.5615L101.129 26.5544ZM14.9473 21.1314L13.8681 20.8418C12.115 20.3699 11.6883 19.8765 11.6883 19.1616C11.6883 18.4895 12.1221 17.9318 13.065 17.9318H13.0937C13.6387 17.9318 14.0832 17.4885 14.0832 16.9451C14.0832 16.4017 13.6387 15.9834 13.0937 15.9584C9.75946 15.8011 8.20348 17.2132 8.20348 19.6334C8.20348 21.6283 9.39378 22.615 11.7098 23.262L12.7675 23.5516C14.6103 24.0663 15.105 24.4704 15.105 25.3677C15.105 26.1506 14.5672 26.669 13.5562 26.669C12.5452 26.669 11.803 26.3115 11.1971 25.7287C10.792 25.3462 10.4335 24.8565 10.0965 24.3167C9.78098 23.7804 9.51208 23.5552 9.01732 23.5552C8.43293 23.5552 7.93817 23.9591 8.00629 24.7885C8.07441 25.3499 8.14253 25.7752 8.23216 26.3329C8.30028 26.9156 8.3684 27.3411 8.47954 28.0596C8.56917 28.6638 8.88467 28.9999 9.42245 28.9999C9.91721 28.9999 10.2327 28.7531 10.3439 28.3957C10.4335 28.0596 10.5912 27.9917 10.8171 27.9917C10.9964 27.9917 11.2007 28.0596 11.4445 28.1491C12.0074 28.3492 12.8141 28.6853 14.1872 28.6853C16.9048 28.6853 18.6365 27.0943 18.6365 24.8993C18.6365 22.7043 17.4677 21.807 14.9509 21.1349L14.9473 21.1314Z" fill="black" fill-opacity="0.8"/>
<path d="M16.3671 20.4773C17.6205 20.4773 18.6365 19.4641 18.6365 18.2143C18.6365 16.9646 17.6205 15.9514 16.3671 15.9514C15.1137 15.9514 14.0977 16.9646 14.0977 18.2143C14.0977 19.4641 15.1137 20.4773 16.3671 20.4773ZM98.2356 15.5259C99.4889 15.5259 100.505 14.5127 100.505 13.263C100.505 12.0132 99.4889 11 98.2356 11C96.9822 11 95.9662 12.0132 95.9662 13.263C95.9662 14.5127 96.9822 15.5259 98.2356 15.5259Z" fill="#0D6DF2"/>
</g>
<defs>
<clipPath id="clip0_626_11046">
<rect width="94" height="18" fill="white" transform="translate(8 11)"/>
</clipPath>
</defs>
</svg>
