<svg width="20" height="20" viewBox="0 0 20 20" fill="none" xmlns="http://www.w3.org/2000/svg">
<path d="M4.99999 13.1666L5.9525 14.1666L8.33336 11.6666M4.99999 7.33323L5.9525 8.33324L8.33336 5.83321M10.8334 7.49989H15.0001M10.8334 13.3333H15.0001M1.66663 9.99992C1.66663 6.07155 1.66663 4.10736 2.88664 2.88652C4.10832 1.6665 6.07167 1.6665 10 1.6665C13.9284 1.6665 15.8926 1.6665 17.1126 2.88652C18.3335 4.10819 18.3335 6.07155 18.3335 9.99992C18.3335 13.9283 18.3335 15.8925 17.1126 17.1125C15.8934 18.3333 13.9284 18.3333 10 18.3333C6.07167 18.3333 4.10748 18.3333 2.88664 17.1125C1.66663 15.8933 1.66663 13.9283 1.66663 9.99992Z" stroke="black" stroke-opacity="0.56" stroke-linecap="round" stroke-linejoin="round"/>
</svg>
