<svg width="40" height="40" viewBox="0 0 40 40" fill="none" xmlns="http://www.w3.org/2000/svg">
<path d="M19.9999 16.2383C20.2556 16.2383 20.4629 16.031 20.4629 15.7753C20.4629 15.5197 20.2556 15.3124 19.9999 15.3124C19.7442 15.3124 19.5369 15.5197 19.5369 15.7753C19.5369 16.031 19.7442 16.2383 19.9999 16.2383Z" fill="black" fill-opacity="0.8"/>
<path d="M16.8749 24.6875L19.9999 21.0416M19.9999 21.0416L23.1249 24.6875M19.9999 21.0416L19.9996 18.1479M19.9996 18.1479L24.1666 17.3957M19.9996 18.1479L15.8332 17.3957M11.6665 19.9999C11.6665 21.0943 11.8821 22.1779 12.3008 23.189C12.7196 24.2 13.3335 25.1187 14.1073 25.8925C14.8811 26.6664 15.7998 27.2802 16.8109 27.699C17.8219 28.1178 18.9056 28.3333 19.9999 28.3333C21.0943 28.3333 22.1779 28.1178 23.189 27.699C24.2 27.2802 25.1187 26.6664 25.8925 25.8925C26.6664 25.1187 27.2802 24.2 27.699 23.189C28.1178 22.1779 28.3333 21.0943 28.3333 19.9999C28.3333 18.9056 28.1178 17.8219 27.699 16.8109C27.2802 15.7998 26.6664 14.8811 25.8925 14.1073C25.1187 13.3335 24.2 12.7196 23.189 12.3008C22.1779 11.8821 21.0943 11.6665 19.9999 11.6665C18.9056 11.6665 17.8219 11.8821 16.8109 12.3008C15.7998 12.7196 14.8811 13.3335 14.1073 14.1073C13.3335 14.8811 12.7196 15.7998 12.3008 16.8109C11.8821 17.8219 11.6665 18.9056 11.6665 19.9999ZM20.4629 15.7753C20.4629 16.031 20.2556 16.2383 19.9999 16.2383C19.7442 16.2383 19.5369 16.031 19.5369 15.7753C19.5369 15.5197 19.7442 15.3124 19.9999 15.3124C20.2556 15.3124 20.4629 15.5197 20.4629 15.7753Z" stroke="black" stroke-opacity="0.8" stroke-linecap="round" stroke-linejoin="round"/>
</svg>
