<svg width="1206" height="540" viewBox="0 0 1206 540" fill="none" xmlns="http://www.w3.org/2000/svg">
<g opacity="0.4" filter="url(#filter0_f_626_10997)">
<path d="M842.8 388.687C792.926 400.462 727.885 326.194 724.988 259.024C722.163 193.543 767.135 221.288 872.643 173.856C853.872 196.737 1070.05 151.719 1054.81 177.422C1039.58 203.126 943.461 280.122 921.679 303.841C899.897 327.561 892.673 376.911 842.8 388.687Z" fill="#FF3300" fill-opacity="0.2"/>
<path d="M749.848 325.42C847.553 301.095 794.706 280.19 697.001 169.586C644.154 149.061 545.22 138.419 489.301 169.586C433.381 200.752 523.098 254.344 523.098 297.674C523.098 341.003 652.143 349.745 749.848 325.42Z" fill="#FF93EF" fill-opacity="0.5"/>
<path d="M176.103 212.652C201.651 154.495 225.468 192.919 330.32 201.907C320.998 208.367 315.581 220.774 368.497 218.714C434.642 216.139 418.721 249.989 432.731 285.362C446.741 320.735 449.754 349.23 396.713 371.902C343.672 394.573 339.885 375.35 287.358 349.887C234.831 324.424 231.835 338.82 181.388 301.764C130.941 264.708 150.554 270.81 176.103 212.652Z" fill="#5CEBFF" fill-opacity="0.5"/>
<path d="M317.69 191.549C343.238 133.392 367.055 171.815 471.907 180.803C462.585 187.264 457.168 199.67 510.084 197.61C576.229 195.035 560.308 228.886 574.318 264.258C588.328 299.631 591.341 328.126 538.3 350.798C485.259 373.47 481.472 354.246 428.945 328.784C376.418 303.321 373.422 317.716 322.975 280.66C272.528 243.605 292.141 249.706 317.69 191.549Z" fill="#5C9DFF" fill-opacity="0.5"/>
</g>
<defs>
<filter id="filter0_f_626_10997" x="-40.4978" y="-45.6167" width="1317.74" height="622" filterUnits="userSpaceOnUse" color-interpolation-filters="sRGB">
<feFlood flood-opacity="0" result="BackgroundImageFix"/>
<feBlend mode="normal" in="SourceGraphic" in2="BackgroundImageFix" result="shape"/>
<feGaussianBlur stdDeviation="75" result="effect1_foregroundBlur_626_10997"/>
</filter>
</defs>
</svg>
