<svg width="16" height="16" viewBox="0 0 16 16" fill="none" xmlns="http://www.w3.org/2000/svg">
<path d="M13.1649 3.33312C14.1098 4.64661 14.6663 6.25821 14.6663 7.99979C14.6663 9.74136 14.1098 11.353 13.1649 12.6665M10.4965 5.33312C11.0238 6.08901 11.333 7.00829 11.333 7.99979C11.333 8.99129 11.0238 9.91057 10.4965 10.6665M6.42255 2.91024L4.31209 5.0207C4.19679 5.136 4.13914 5.19365 4.07186 5.23488C4.01222 5.27143 3.94719 5.29837 3.87916 5.3147C3.80244 5.33312 3.72091 5.33312 3.55785 5.33312H2.39967C2.02631 5.33312 1.83962 5.33312 1.69701 5.40578C1.57157 5.4697 1.46959 5.57169 1.40567 5.69713C1.33301 5.83974 1.33301 6.02642 1.33301 6.39979V9.59979C1.33301 9.97316 1.33301 10.1598 1.40567 10.3024C1.46959 10.4279 1.57157 10.5299 1.69701 10.5938C1.83962 10.6665 2.02631 10.6665 2.39967 10.6665H3.55785C3.72091 10.6665 3.80244 10.6665 3.87916 10.6849C3.94719 10.7012 4.01222 10.7281 4.07186 10.7647C4.13914 10.8059 4.19679 10.8636 4.31209 10.9789L6.42255 13.0893C6.70813 13.3749 6.85093 13.5177 6.97352 13.5274C7.07989 13.5357 7.18385 13.4927 7.25314 13.4115C7.33301 13.318 7.33301 13.1161 7.33301 12.7122V3.28737C7.33301 2.88349 7.33301 2.68155 7.25314 2.58804C7.18385 2.50691 7.07989 2.46385 6.97352 2.47222C6.85093 2.48187 6.70813 2.62466 6.42255 2.91024Z" stroke="black" stroke-opacity="0.8" stroke-linecap="round" stroke-linejoin="round"/>
</svg>
