<svg width="16" height="16" viewBox="0 0 16 16" fill="none" xmlns="http://www.w3.org/2000/svg">
<path d="M14.6663 4.66667H14.6652M14.6652 4.66667H1.33414M14.6652 4.66667C14.6663 4.82915 14.6663 5.0062 14.6663 5.2V10.1333M14.6652 4.66667C14.6598 3.89005 14.6286 3.44582 14.4484 3.09202C14.2566 2.7157 13.9506 2.40973 13.5743 2.21799C13.1465 2 12.5864 2 11.4663 2H4.53301C3.4129 2 2.85285 2 2.42503 2.21799C2.0487 2.40973 1.74274 2.71569 1.55099 3.09202C1.37072 3.44582 1.33953 3.89005 1.33414 4.66667M1.33414 4.66667H1.33301M1.33414 4.66667C1.33301 4.82916 1.33301 5.00619 1.33301 5.2V10.8C1.33301 11.9201 1.33301 12.4802 1.55099 12.908C1.74274 13.2843 2.0487 13.5903 2.42503 13.782C2.85285 14 3.4129 14 4.53301 14H8.79968M3.99967 7L8.66634 7M3.99967 9H6.66634M3.99967 11H6.66634M12.333 9.33333L11.7294 10.9027C11.6448 11.1226 11.6025 11.2326 11.5367 11.3251C11.4784 11.4071 11.4068 11.4788 11.3248 11.5371C11.2323 11.6028 11.1223 11.6451 10.9023 11.7297L9.33301 12.3333L10.9023 12.9369C11.1223 13.0215 11.2323 13.0638 11.3248 13.1296C11.4068 13.1879 11.4784 13.2595 11.5367 13.3415C11.6025 13.4341 11.6448 13.544 11.7294 13.764L12.333 15.3333L12.9366 13.764C13.0212 13.544 13.0635 13.4341 13.1293 13.3415C13.1876 13.2595 13.2592 13.1879 13.3412 13.1296C13.4337 13.0638 13.5437 13.0215 13.7637 12.9369L15.333 12.3333L13.7637 11.7297C13.5437 11.6451 13.4337 11.6028 13.3412 11.5371C13.2592 11.4788 13.1876 11.4071 13.1293 11.3251C13.0635 11.2326 13.0212 11.1226 12.9366 10.9027L12.333 9.33333Z" stroke="#973C00" stroke-linecap="round" stroke-linejoin="round"/>
</svg>
