<svg width="16" height="16" viewBox="0 0 16 16" fill="none" xmlns="http://www.w3.org/2000/svg">
<path d="M7.33301 1.3335L9.33301 3.3335M9.33301 3.3335L7.33301 5.3335M9.33301 3.3335H4.53301C3.4129 3.3335 2.85285 3.3335 2.42503 3.55148C2.0487 3.74323 1.74274 4.04919 1.55099 4.42551C1.33301 4.85334 1.33301 5.41339 1.33301 6.5335V10.3335C1.33301 10.6431 1.33301 10.7979 1.35012 10.9279C1.46827 11.8253 2.17449 12.5316 3.07196 12.6497C3.20192 12.6668 3.35673 12.6668 3.66634 12.6668M6.66634 12.6668H11.4663C12.5864 12.6668 13.1465 12.6668 13.5743 12.4488C13.9506 12.2571 14.2566 11.9511 14.4484 11.5748C14.6663 11.147 14.6663 10.5869 14.6663 9.46683V5.66683C14.6663 5.35722 14.6663 5.20241 14.6492 5.07244C14.5311 4.17498 13.8249 3.46876 12.9274 3.35061C12.7974 3.3335 12.6426 3.3335 12.333 3.3335M6.66634 12.6668L8.66634 14.6668M6.66634 12.6668L8.66634 10.6668" stroke="black" stroke-opacity="0.8" stroke-linecap="round" stroke-linejoin="round"/>
</svg>
