<svg width="20" height="20" viewBox="0 0 20 20" fill="none" xmlns="http://www.w3.org/2000/svg">
<path d="M10 17.5001L9.91666 17.3751C9.33779 16.5068 9.04835 16.0726 8.66594 15.7583C8.32741 15.4801 7.93732 15.2713 7.51802 15.144C7.04439 15.0001 6.5226 15.0001 5.47902 15.0001H4.33332C3.39989 15.0001 2.93317 15.0001 2.57665 14.8185C2.26304 14.6587 2.00807 14.4037 1.84828 14.0901C1.66663 13.7336 1.66663 13.2669 1.66663 12.3334V5.16669C1.66663 4.23326 1.66663 3.76655 1.84828 3.41002C2.00807 3.09642 2.26304 2.84145 2.57665 2.68166C2.93317 2.5 3.39989 2.5 4.33332 2.5H4.66666C6.53351 2.5 7.46694 2.5 8.17999 2.86332C8.8072 3.1829 9.31714 3.69284 9.63672 4.32005C10 5.0331 10 5.96653 10 7.83339M10 17.5001V7.83339M10 17.5001L10.0834 17.3751C10.6623 16.5068 10.9517 16.0726 11.3341 15.7583C11.6727 15.4801 12.0628 15.2713 12.4821 15.144C12.9557 15.0001 13.4775 15.0001 14.5211 15.0001H15.6668C16.6002 15.0001 17.0669 15.0001 17.4234 14.8185C17.737 14.6587 17.992 14.4037 18.1518 14.0901C18.3335 13.7336 18.3335 13.2669 18.3335 12.3334V5.16669C18.3335 4.23326 18.3335 3.76655 18.1518 3.41002C17.992 3.09642 17.737 2.84145 17.4234 2.68166C17.0669 2.5 16.6002 2.5 15.6668 2.5H15.3334C13.4666 2.5 12.5331 2.5 11.8201 2.86332C11.1929 3.1829 10.6829 3.69284 10.3634 4.32005C10 5.0331 10 5.96653 10 7.83339" stroke="black" stroke-opacity="0.56" stroke-linecap="round" stroke-linejoin="round"/>
</svg>
