<svg width="24" height="24" viewBox="0 0 24 24" fill="none" xmlns="http://www.w3.org/2000/svg">
<path d="M10 2H14M22 10V14M18 22C18.93 22 19.395 22 19.7765 21.8978C20.8117 21.6204 21.6204 20.8117 21.8978 19.7765C22 19.395 22 18.93 22 18M22 6C22 5.07003 22 4.60504 21.8978 4.22354C21.6204 3.18827 20.8117 2.37962 19.7765 2.10222C19.395 2 18.93 2 18 2M6 2C5.07003 2 4.60504 2 4.22354 2.10222C3.18827 2.37962 2.37962 3.18827 2.10222 4.22354C2 4.60504 2 5.07003 2 6M14 22H10M2 14V10M2 18C2 18.93 2 19.395 2.10222 19.7765C2.37962 20.8117 3.18827 21.6204 4.22354 21.8978C4.60504 22 5.07003 22 6 22" stroke="black" stroke-opacity="0.8" stroke-linecap="round" stroke-linejoin="round"/>
<path d="M9.25 12.5L9.64223 13.2845C9.77497 13.5499 9.84135 13.6827 9.93002 13.7977C10.0087 13.8998 10.1002 13.9913 10.2023 14.07C10.3173 14.1587 10.4501 14.225 10.7155 14.3578L11.5 14.75L10.7155 15.1422C10.4501 15.275 10.3173 15.3413 10.2023 15.43C10.1002 15.5087 10.0087 15.6002 9.93002 15.7023C9.84135 15.8173 9.77497 15.9501 9.64223 16.2155L9.25 17L8.85777 16.2155C8.72503 15.9501 8.65865 15.8173 8.56998 15.7023C8.4913 15.6002 8.3998 15.5087 8.29772 15.43C8.18269 15.3413 8.04995 15.275 7.78446 15.1422L7 14.75L7.78446 14.3578C8.04995 14.225 8.18269 14.1587 8.29772 14.07C8.3998 13.9913 8.4913 13.8998 8.56998 13.7977C8.65865 13.6827 8.72503 13.5499 8.85777 13.2845L9.25 12.5Z" stroke="black" stroke-opacity="0.8" stroke-linecap="round" stroke-linejoin="round"/>
<path d="M13.5 7L14.0893 8.53221C14.2303 8.89882 14.3008 9.08213 14.4105 9.23632C14.5076 9.37298 14.627 9.49237 14.7637 9.58954C14.9179 9.69918 15.1012 9.76968 15.4678 9.91069L17 10.5L15.4678 11.0893C15.1012 11.2303 14.9179 11.3008 14.7637 11.4105C14.627 11.5076 14.5076 11.627 14.4105 11.7637C14.3008 11.9179 14.2303 12.1012 14.0893 12.4678L13.5 14L12.9107 12.4678C12.7697 12.1012 12.6992 11.9179 12.5895 11.7637C12.4924 11.627 12.373 11.5076 12.2363 11.4105C12.0821 11.3008 11.8988 11.2303 11.5322 11.0893L10 10.5L11.5322 9.91069C11.8988 9.76968 12.0821 9.69918 12.2363 9.58954C12.373 9.49237 12.4924 9.37298 12.5895 9.23632C12.6992 9.08213 12.7697 8.89882 12.9107 8.53221L13.5 7Z" stroke="black" stroke-opacity="0.8" stroke-linecap="round" stroke-linejoin="round"/>
</svg>
