<svg width="18" height="16" viewBox="0 0 18 16" fill="none" xmlns="http://www.w3.org/2000/svg">
<path d="M9.59441 12.1668H15.5727M9.59441 12.1668L8.00019 15.5001M9.59441 12.1668L11.9821 7.17425C12.1745 6.77195 12.2707 6.57081 12.4024 6.50724C12.5169 6.45196 12.6503 6.45196 12.7648 6.50724C12.8964 6.57081 12.9926 6.77195 13.185 7.17425L15.5727 12.1668M15.5727 12.1668L17.167 15.5001M0.500122 2.16668H5.50017M5.50017 2.16668H8.41687M5.50017 2.16668V0.5M8.41687 2.16668H10.5002M8.41687 2.16668C8.00341 4.63111 7.04401 6.86355 5.63813 8.7371M7.16685 9.66676C6.65641 9.43743 6.13572 9.11849 5.63813 8.7371M5.63813 8.7371C4.51101 7.87321 3.50245 6.68892 3.00015 5.50005M5.63813 8.7371C4.30088 10.5192 2.55967 11.9766 0.500122 13.0001" stroke="black" stroke-opacity="0.8" stroke-linecap="round" stroke-linejoin="round"/>
</svg>
