<svg width="20" height="20" viewBox="0 0 20 20" fill="none" xmlns="http://www.w3.org/2000/svg">
<path d="M17.5001 11.6668V13.5001C17.5001 14.9003 17.5001 15.6003 17.2277 16.1351C16.988 16.6055 16.6055 16.988 16.1351 17.2277C15.6003 17.5001 14.9003 17.5001 13.5001 17.5001H11.6668M8.33339 2.5H6.50004C5.09989 2.5 4.39982 2.5 3.86504 2.77249C3.39463 3.01217 3.01217 3.39463 2.77249 3.86504C2.5 4.39982 2.5 5.09989 2.5 6.50004V8.33339M11.6668 8.33339L16.6668 3.33334M11.6668 8.33339V3.33334M11.6668 8.33339H16.6668M8.33339 11.6668L3.33334 16.6668M8.33339 11.6668V16.6668M8.33339 11.6668H3.33334" stroke="black" stroke-opacity="0.8" stroke-linecap="round" stroke-linejoin="round"/>
</svg>
