<svg width="20" height="20" viewBox="0 0 20 20" fill="none" xmlns="http://www.w3.org/2000/svg">
<path d="M9.1667 3.33321H5.66667C4.26652 3.33321 3.56645 3.33321 3.03166 3.6057C2.56125 3.84539 2.1788 4.22784 1.93911 4.69825C1.66663 5.23304 1.66663 5.93311 1.66663 7.33325V14.3333C1.66663 15.7335 1.66663 16.4335 1.93911 16.9683C2.1788 17.4387 2.56125 17.8212 3.03166 18.0609C3.56645 18.3334 4.26652 18.3334 5.66666 18.3334H12.6667C14.0669 18.3334 14.767 18.3334 15.3017 18.0609C15.7721 17.8212 16.1546 17.4387 16.3943 16.9683C16.6668 16.4335 16.6668 15.7335 16.6668 14.3333V10.8333M6.66665 13.3333H8.06212C8.46977 13.3333 8.6736 13.3333 8.86542 13.2873C9.03548 13.2464 9.19805 13.1791 9.34718 13.0877C9.51537 12.9846 9.6595 12.8405 9.94776 12.5523L17.9168 4.58323C18.6071 3.89286 18.6071 2.77356 17.9168 2.0832C17.2264 1.39284 16.1071 1.39284 15.4168 2.0832L7.44771 10.0522C7.15945 10.3405 7.01533 10.4846 6.91226 10.6528C6.82087 10.8019 6.75353 10.9645 6.7127 11.1346C6.66665 11.3264 6.66665 11.5302 6.66665 11.9379V13.3333Z" stroke="black" stroke-opacity="0.8" stroke-linecap="round" stroke-linejoin="round"/>
</svg>
