<svg width="20" height="20" viewBox="0 0 20 20" fill="none" xmlns="http://www.w3.org/2000/svg">
<path d="M7.91635 12.0837L16.6664 3.33364M8.02266 12.3571L10.2128 17.9888C10.4057 18.485 10.5022 18.733 10.6412 18.8055C10.7617 18.8682 10.9052 18.8683 11.0258 18.8057C11.1649 18.7334 11.2617 18.4855 11.4552 17.9896L16.9472 3.91632C17.1219 3.46866 17.2092 3.24483 17.1614 3.10181C17.1199 2.9776 17.0225 2.88013 16.8983 2.83863C16.7552 2.79085 16.5314 2.8782 16.0838 3.05289L2.0105 8.5449C1.5146 8.73842 1.26665 8.83518 1.19439 8.97427C1.13175 9.09484 1.13184 9.23839 1.19462 9.35889C1.26704 9.49789 1.5151 9.59436 2.01123 9.7873L7.64296 11.9774C7.74366 12.0166 7.79402 12.0362 7.83642 12.0664C7.874 12.0932 7.90687 12.1261 7.93367 12.1637C7.96392 12.2061 7.9835 12.2564 8.02266 12.3571Z" stroke="white" stroke-linecap="round" stroke-linejoin="round"/>
</svg>
