<svg width="20" height="20" viewBox="0 0 20 20" fill="none" xmlns="http://www.w3.org/2000/svg">
<path d="M15.0001 12.5001L17.5001 15.0001M17.5001 15.0001L15.0001 17.5001M17.5001 15.0001H15.4742C14.6915 15.0001 14.3002 15.0001 13.9449 14.8922C13.6305 14.7967 13.3379 14.6402 13.084 14.4315C12.7972 14.1958 12.5801 13.8701 12.146 13.2189L11.9445 12.9168M15.0001 2.5L17.5001 5.00002M17.5001 5.00002L15.0001 7.50005M17.5001 5.00002H15.4742C14.6915 5.00002 14.3002 5.00002 13.9449 5.1079C13.6305 5.20341 13.3379 5.35998 13.084 5.56867C12.7972 5.80439 12.5801 6.13001 12.146 6.78124L7.85418 13.2189C7.42003 13.8701 7.20295 14.1958 6.91615 14.4315C6.66224 14.6402 6.36968 14.7967 6.0552 14.8922C5.69998 15.0001 5.30864 15.0001 4.52595 15.0001H2.5M2.5 5.00002H4.52595C5.30864 5.00002 5.69998 5.00002 6.0552 5.1079C6.36968 5.20341 6.66224 5.35998 6.91615 5.56867C7.20295 5.80439 7.42003 6.13001 7.85419 6.78124L8.05561 7.08338" stroke="black" stroke-linecap="round" stroke-linejoin="round"/>
</svg>
