<svg width="24" height="24" viewBox="0 0 24 24" fill="none" xmlns="http://www.w3.org/2000/svg">
<path d="M14.7528 5.28415C17.5528 3.28915 19.913 2.49403 20.709 3.29103C21.506 4.08703 20.619 6.37403 18.624 9.17503M14.7528 5.28415C15.6323 5.66514 16.4269 6.2179 17.09 6.91003M14.7528 5.28415C13.8733 4.90317 12.9265 4.70163 11.9681 4.69136C11.0096 4.68109 10.0588 4.8623 9.1713 5.22435C8.28381 5.5864 7.47754 6.12202 6.79978 6.79978C6.12202 7.47754 5.5864 8.28381 5.22435 9.1713C4.8623 10.0588 4.68109 11.0096 4.69136 11.9681C4.70163 12.9265 4.90317 13.8733 5.28415 14.7528M5.28415 14.7528C3.28915 17.5528 2.49403 19.913 3.29103 20.709C4.08703 21.506 6.37403 20.619 9.17503 18.624M5.28415 14.7528C5.66514 15.6323 6.2179 16.4269 6.91003 17.09M9.17503 18.624C10.764 17.492 12.519 16.003 14.261 14.261C16.003 12.519 17.492 10.764 18.625 9.17403C19.0053 10.0676 19.2009 11.0289 19.2 12C19.2003 13.1906 18.9053 14.3626 18.3414 15.4112C17.7776 16.4598 16.9625 17.3522 15.9692 18.0085C14.9759 18.6648 13.8354 19.0646 12.6497 19.172C11.464 19.2794 10.2701 19.0912 9.17503 18.624Z" stroke="black" stroke-opacity="0.8" stroke-linecap="round" stroke-linejoin="round"/>
</svg>
