<svg width="20" height="20" viewBox="0 0 20 20" fill="none" xmlns="http://www.w3.org/2000/svg">
<path d="M16.6668 10.4166V5.66654C16.6668 4.2664 16.6668 3.56633 16.3944 3.03154C16.1547 2.56113 15.7722 2.17868 15.3018 1.93899C14.767 1.6665 14.0669 1.6665 12.6668 1.6665H7.33341C5.93327 1.6665 5.2332 1.6665 4.69841 1.93899C4.228 2.17868 3.84555 2.56113 3.60586 3.03154C3.33337 3.56633 3.33337 4.2664 3.33337 5.66654V14.3333C3.33337 15.7334 3.33337 16.4335 3.60586 16.9683C3.84555 17.4387 4.228 17.8212 4.69841 18.0608C5.2332 18.3333 5.93327 18.3333 7.33341 18.3333H10.0001M11.6668 9.16658H6.66674M8.33342 12.4999H6.66674M13.3335 5.83321H6.66674M12.0835 15.8333L13.7501 17.5L17.5002 13.75" stroke="black" stroke-opacity="0.56" stroke-linecap="round" stroke-linejoin="round"/>
</svg>
